<?xml version="1.0" encoding="utf-8"?>
<!-- Generator: Adobe Illustrator 18.1.1, SVG Export Plug-In . SVG Version: 6.00 Build 0)  -->
<svg version="1.1" id="Ebene_1" xmlns="http://www.w3.org/2000/svg" xmlns:xlink="http://www.w3.org/1999/xlink" x="0px" y="0px"
	 viewBox="0 0 841.9 379.8" enable-background="new 0 0 841.9 379.8" xml:space="preserve">
<g>
	<g>
		
			<line fill="none" stroke="#575756" stroke-linecap="round" stroke-linejoin="round" x1="321.2" y1="311.1" x2="321.2" y2="284.7"/>
		<g>
			<path fill="#575756" d="M321.2,317.1c1.1-2.8,2.9-6.4,4.8-8.5l-4.8,1.7l-4.8-1.7C318.4,310.8,320.1,314.3,321.2,317.1z"/>
		</g>
	</g>
</g>
<line fill="none" stroke="#575756" stroke-linecap="round" stroke-linejoin="round" stroke-miterlimit="10" x1="468.4" y1="347.8" x2="429.9" y2="347.8"/>
<g>
	<g>
		
			<line fill="none" stroke="#575756" stroke-linecap="round" stroke-linejoin="round" x1="703.4" y1="163.5" x2="775.1" y2="163.5"/>
		<g>
			<path fill="#575756" d="M781.2,163.5c-2.8,1.1-6.4,2.9-8.5,4.8l1.7-4.8l-1.7-4.8C774.8,160.6,778.3,162.4,781.2,163.5z"/>
		</g>
	</g>
</g>
<g>
	<g>
		<line fill="none" stroke="#575756" stroke-linecap="round" stroke-linejoin="round" x1="604.8" y1="126.8" x2="604.8" y2="88.7"/>
		<g>
			<path fill="#575756" d="M604.8,132.8c1.1-2.8,2.9-6.4,4.8-8.5l-4.8,1.7l-4.8-1.7C602,126.5,603.8,130,604.8,132.8z"/>
		</g>
	</g>
</g>
<g>
	<g>
		<line fill="none" stroke="#575756" stroke-linecap="round" stroke-linejoin="round" x1="321.2" y1="126.8" x2="321.2" y2="88.7"/>
		<g>
			<path fill="#575756" d="M321.2,132.8c1.1-2.8,2.9-6.4,4.8-8.5l-4.8,1.7l-4.8-1.7C318.4,126.5,320.1,130,321.2,132.8z"/>
		</g>
	</g>
</g>
<g>
	<g>
		
			<line fill="none" stroke="#575756" stroke-linecap="round" stroke-linejoin="round" x1="321.2" y1="217.5" x2="321.2" y2="194.1"/>
		<g>
			<path fill="#575756" d="M321.2,223.5c1.1-2.8,2.9-6.4,4.8-8.5l-4.8,1.7l-4.8-1.7C318.4,217.1,320.1,220.7,321.2,223.5z"/>
		</g>
	</g>
</g>
<g>
	<g>
		<line fill="none" stroke="#575756" stroke-linecap="round" stroke-linejoin="round" x1="156.3" y1="270.8" x2="228" y2="270.8"/>
		<g>
			<path fill="#575756" d="M234.1,270.8c-2.8,1.1-6.4,2.9-8.5,4.8l1.7-4.8l-1.7-4.8C227.7,268,231.2,269.8,234.1,270.8z"/>
		</g>
	</g>
</g>
<g>
	<g>
		<line fill="none" stroke="#575756" stroke-linecap="round" stroke-linejoin="round" x1="162.3" y1="238" x2="234.1" y2="238"/>
		<g>
			<path fill="#575756" d="M156.3,238c2.8,1.1,6.4,2.9,8.5,4.8l-1.7-4.8l1.7-4.8C162.6,235.2,159.1,237,156.3,238z"/>
		</g>
	</g>
</g>
<rect x="233.9" y="132.8" fill="#BDDEF6" width="195.9" height="61.3"/>
<rect x="233.9" y="317.1" fill="#BDDEF6" width="195.9" height="61.3"/>
<text transform="matrix(1 0 0 1 273.0118 172.7912)" fill="#2764AE" font-family="'MyriadPro-Regular'" font-size="27.4975">DMA - FFT</text>
<rect x="233.9" y="223.5" fill="#BDDEF6" width="195.9" height="61.3"/>
<text transform="matrix(1 0 0 1 254.7677 264.0686)" fill="#2764AE" font-family="'MyriadPro-Regular'" font-size="27.4975">FFT- Wrapper</text>
<text transform="matrix(1 0 0 1 251.2482 356.9543)" fill="#2764AE" font-family="'MyriadPro-Regular'" font-size="27.4975">DMA - Display</text>
<rect x="0" y="176" fill="#BDDEF6" width="156.3" height="156.3"/>
<text transform="matrix(1 0 0 1 54.0519 244.2512)"><tspan x="0" y="0" fill="#2764AE" font-family="'MyriadPro-Regular'" font-size="32.7476">FFT</tspan><tspan x="-8" y="39.3" fill="#2764AE" font-family="'MyriadPro-Regular'" font-size="32.7476">Core</tspan></text>
<rect x="506.9" y="132.8" fill="#BDDEF6" width="195.9" height="61.3"/>
<text transform="matrix(1 0 0 1 531.5167 172.7912)" fill="#2764AE" font-family="'MyriadPro-Regular'" font-size="27.4975">Framereader</text>
<rect x="780.6" y="132.8" fill="#BDDEF6" width="61.3" height="246.9"/>
<text transform="matrix(4.489659e-11 -1.0911 1 4.898809e-11 818.8995 299.9289)" fill="#2764AE" font-family="'MyriadPro-Regular'" font-size="27.4975">Display</text>
<rect x="233.4" y="0" fill="#EEEEEE" stroke="#575756" stroke-miterlimit="10" width="470" height="61.3"/>
<text transform="matrix(1 0 0 1 426.3888 42.4045)" fill="#3C3C3B" font-family="'MyriadPro-Regular'" font-size="27.4975">SDRAM</text>
<g>
	<g>
		<line fill="none" stroke="#575756" stroke-linecap="round" stroke-linejoin="round" x1="468.4" y1="94.8" x2="468.4" y2="347.8"/>
		<g>
			<path fill="#575756" d="M468.4,88.7c-1.1,2.8-2.9,6.4-4.8,8.5l4.8-1.7l4.8,1.7C471.2,95.1,469.4,91.6,468.4,88.7z"/>
		</g>
	</g>
</g>
<rect x="233.4" y="61.3" fill="#EEEEEE" stroke="#575756" stroke-miterlimit="10" width="470" height="27.5"/>
<line fill="none" stroke="#575756" stroke-miterlimit="10" x1="431.7" y1="61.3" x2="431.7" y2="88.7"/>
<text transform="matrix(1 0 0 1 307.8468 81.0823)" fill="#575756" font-family="'MyriadPro-Regular'" font-size="18.1568">FFT</text>
<text transform="matrix(1 0 0 1 499.3263 81.0813)" fill="#575756" font-family="'MyriadPro-Regular'" font-size="18.1568">Display</text>
<line fill="none" stroke="#575756" stroke-miterlimit="10" x1="621.4" y1="61.3" x2="621.4" y2="88.7"/>
<text transform="matrix(1 0 0 1 655.8439 81.0813)" fill="#626261" font-family="'MyriadPro-Regular'" font-size="18.1568">...</text>
<text transform="matrix(4.489660e-11 -1 1 4.489660e-11 463.4757 150.9875)" fill="#575756" font-family="'MyriadPro-Regular'" font-size="16.0402">write</text>
<text transform="matrix(1 0 0 1 613.129 106.6545)" fill="#575756" font-family="'MyriadPro-Regular'" font-size="16.0402">read</text>
<text transform="matrix(1 0 0 1 180.7179 231.0813)" fill="#575756" font-family="'MyriadPro-Regular'" font-size="16.0402">FFT</text>
<text transform="matrix(1 0 0 1 173.8175 264.0666)" fill="#575756" font-family="'MyriadPro-Regular'" font-size="16.0402">write</text>
<text transform="matrix(1 0 0 1 331.9102 106.6545)" fill="#575756" font-family="'MyriadPro-Regular'" font-size="16.0402">read</text>
</svg>
